<?xml version="1.0" encoding="UTF-8"?>
<svg width="16px" height="16px" viewBox="0 0 16 16" version="1.1" xmlns="http://www.w3.org/2000/svg" xmlns:xlink="http://www.w3.org/1999/xlink">
    <!-- Generator: Sketch 58 (84663) - https://sketch.com -->
    <title>-mockplus-</title>
    <desc>Created with Sketch.</desc>
    <g id="前台" stroke="none" stroke-width="1" fill="none" fill-rule="evenodd">
        <g id="模版-申请文件保护" transform="translate(-661.000000, -360.000000)" fill="#12133F" fill-rule="nonzero">
            <g id="-mockplus-dup-|28E166A6-520E-4D9E-9D11-306EF38CB688|图片操作" transform="translate(653.000000, 352.000000)">
                <g id="图片操作">
                    <g id="图片操作/更多/默认">
                        <g id="-mockplus-dup-|59ED6AFD-841C-4FA7-B2AA-E1C536EFA46A|icon/more" transform="translate(8.000000, 8.000000)">
                            <g id="icon/more">
                                <path d="M12.0339453,14.921144 C11.8717243,14.921144 11.6824498,14.8670703 11.5202455,14.7859598 L8.00518973,13.0284821 L4.4631808,14.7859598 C4.11168527,14.9752176 3.65202567,14.9481808 3.32756696,14.7048326 C3.003125,14.4613504 2.81383371,14.0287109 2.8949442,13.6233092 L3.62498884,9.83798549 L0.840078125,7.24218192 C0.54265625,6.94469308 0.434508929,6.48511719 0.54265625,6.10656808 C0.664337054,5.7415106 0.939303125,5.46413382 1.30846153,5.37288934 L5.30137277,4.64651228 L7.03181362,1.13155692 C7.22115513,0.753024554 7.59970424,0.509626116 8.00520647,0.509626116 C8.41077567,0.509626116 8.81642857,0.753024554 8.97866629,1.13155692 L10.7091071,4.64651228 L14.575558,5.32251674 C14.9811272,5.3765904 15.3326228,5.6740625 15.4407701,6.0796317 C15.575971,6.48518415 15.4678237,6.91780692 15.1704018,7.21524554 L12.3854911,9.83798549 L13.0884654,13.6233092 C13.1695759,14.0559152 12.9803181,14.4615179 12.6558594,14.7048326 C12.5260826,14.8130067 12.3616987,14.8865415 12.1765247,14.9116285 L12.0339453,14.921144 Z M11.596879,13.2590368 L11.0090259,10.0936095 C10.9220882,9.62547402 11.0790383,9.14524452 11.4256608,8.81880647 L13.7778908,6.60429068 L10.4679908,6.02559273 C10.0276318,5.94860104 9.65051841,5.66594036 9.45306838,5.26487028 L8.00612524,2.32217276 L6.55741153,5.26487028 C6.36143518,5.66294696 5.98835777,5.94455826 5.55181238,6.02393015 L2.23196319,6.62569398 L4.57955684,8.81387616 C4.93224245,9.14261293 5.09095948,9.62969464 4.99965639,10.1031065 L4.39099276,13.2589143 L7.38292514,11.7743742 C7.77630958,11.5791843 8.23848686,11.5798887 8.63127445,11.7762769 L11.596879,13.2590368 Z" id="路径"></path>
                            </g>
                        </g>
                    </g>
                </g>
            </g>
        </g>
    </g>
</svg>