<svg class="icon" viewBox="0 0 1024 1024" xmlns="http://www.w3.org/2000/svg" width="64" height="64"><defs><style/></defs><path d="M167.936 917.504a42.391 42.391 0 0142.496-42.496h610.304a42.391 42.391 0 0142.496 42.496A42.391 42.391 0 01820.736 960H210.944c-23.552 0-43.008-18.944-43.008-42.496zM512 759.808a42.391 42.391 0 0042.496-42.496V107.52A42.391 42.391 0 00512 65.024a42.391 42.391 0 00-42.496 42.496v609.792c0 23.552 19.456 42.496 42.496 42.496zm-30.208 31.232c16.384 16.384 42.496 17.408 57.856 2.048L852.48 480.256c15.36-15.36 14.336-41.472-2.048-57.856s-42.496-17.408-57.856-2.048L479.744 733.184c-15.36 15.36-14.336 40.96 2.048 57.856zm60.416 0c16.384-16.384 17.408-42.496 2.048-57.856L231.424 420.352c-15.36-15.36-41.472-14.336-57.856 2.048s-17.408 42.496-2.048 57.856l312.832 312.832c15.36 15.36 41.472 14.336 57.856-2.048z"/></svg>