<svg viewBox="0 0 16 16" xmlns="http://www.w3.org/2000/svg"><path d="M12.672 7.296l.087.09 1.887 2.201a.25.25 0 01-.132.406l-.058.007H13v2h1.457a.25.25 0 01.19.413l-1.887 2.201a1 1 0 01-1.518 0l-1.887-2.201a.25.25 0 01.19-.413H11v-2H9.544a.25.25 0 01-.227-.356l.037-.057 1.887-2.201a1 1 0 011.43-.09zM.816 11.162a1 1 0 011.168-.636l.112.034 5.562 2a1 1 0 01-.564 1.915l-.112-.033-5.563-2a1 1 0 01-.603-1.28zm1.168-4.136l.112.033 5.562 2a1 1 0 01-.564 1.915l-.112-.033-5.563-2a1 1 0 01.452-1.935l.113.02zm6.354-5.967l6.243 2.243c.882.317.882 1.565 0 1.882L8.338 7.426a1 1 0 01-.676 0L1.419 5.184c-.882-.317-.882-1.565 0-1.882l6.243-2.243a1 1 0 01.676 0zM8 3.063l-3.285 1.18L8 5.423l3.285-1.18L8 3.063z"/></svg>